<svg width="35" height="35" viewBox="0 0 35 35" fill="none" xmlns="http://www.w3.org/2000/svg">
<path d="M18.5999 14.0012L22.0738 17.5723L22.0738 17.5724C22.1862 17.6879 22.3393 17.7533 22.4994 17.7533C22.6596 17.7533 22.8127 17.6879 22.9251 17.5724C23.0374 17.4569 23.1 17.3009 23.1 17.1389C23.1 16.9768 23.0374 16.8208 22.9251 16.7053L18.4257 12.0813L18.4256 12.0812L18.354 12.1509C18.3075 12.1031 18.2523 12.0651 18.1916 12.0392C18.1309 12.0133 18.0658 12 18 12C17.9342 12 17.8691 12.0133 17.8084 12.0392C17.7477 12.0651 17.6925 12.1031 17.646 12.1509L18.5999 14.0012ZM18.5999 14.0012L18.5999 23.3044C18.5999 23.4663 18.5374 23.6221 18.4252 23.7374C18.3129 23.8528 18.16 23.9182 18 23.9182C17.84 23.9182 17.6871 23.8528 17.5748 23.7374C17.4626 23.6221 17.4001 23.4663 17.4001 23.3044L17.4001 14.0012L13.9262 17.5723L13.9262 17.5724C13.8138 17.6879 13.6607 17.7533 13.5006 17.7533C13.3404 17.7533 13.1873 17.6879 13.0749 17.5724C12.9626 17.4569 12.9 17.3009 12.9 17.1389C12.9 16.9768 12.9626 16.8208 13.0749 16.7053L17.5743 12.0813L18.5999 14.0012Z" fill="white" stroke="white" stroke-width="0.2"/>
<rect x="0.5" y="0.5" width="34" height="34" rx="17" stroke="white" stroke-opacity="0.4"/>
</svg>
