<svg width="12" height="13" viewBox="0 0 12 13" fill="none" xmlns="http://www.w3.org/2000/svg">
<path id="Vector" d="M5.40006 10.4078L1.9262 6.83665L1.92619 6.83664C1.81379 6.72112 1.66074 6.6557 1.50057 6.6557C1.34039 6.6557 1.18735 6.72112 1.07494 6.83664C0.962628 6.95207 0.9 7.10805 0.9 7.27014C0.9 7.43223 0.962628 7.58822 1.07494 7.70365L5.57429 12.3277L5.40006 10.4078ZM5.40006 10.4078L5.40006 1.10461C5.40006 0.942695 5.46263 0.786875 5.57482 0.67157C5.68711 0.556171 5.83999 0.49082 6 0.49082C6.16001 0.49082 6.31289 0.556171 6.42518 0.67157C6.53738 0.786875 6.59994 0.942695 6.59994 1.10461L6.59994 10.4078L10.0738 6.83665L10.0738 6.83664C10.1862 6.72112 10.3393 6.6557 10.4994 6.6557C10.6596 6.6557 10.8127 6.72112 10.9251 6.83664C11.0374 6.95207 11.1 7.10805 11.1 7.27014C11.1 7.43223 11.0374 7.58822 10.9251 7.70365L6.42571 12.3277L5.40006 10.4078ZM6.23084 12.4618C6.30388 12.4306 6.37004 12.385 6.42563 12.3278L6.23084 12.4618ZM6.23084 12.4618C6.15775 12.4929 6.0793 12.509 6 12.509M6.23084 12.4618L6 12.509M6 12.509C5.9207 12.509 5.84225 12.4929 5.76916 12.4618M6 12.509L5.76916 12.4618M5.76916 12.4618C5.69612 12.4306 5.62996 12.385 5.57437 12.3278L5.76916 12.4618Z" fill="white" stroke="white" stroke-width="0.2"/>
</svg>
