<svg width="35" height="35" viewBox="0 0 35 35" fill="none" xmlns="http://www.w3.org/2000/svg">
<path d="M18.5999 21.817L22.0738 18.2458L22.0738 18.2458C22.1862 18.1303 22.3393 18.0649 22.4994 18.0649C22.6596 18.0649 22.8127 18.1303 22.9251 18.2458C23.0374 18.3612 23.1 18.5172 23.1 18.6793C23.1 18.8414 23.0374 18.9974 22.9251 19.1128L18.4257 23.7369L18.5999 21.817ZM18.5999 21.817L18.5999 12.5138C18.5999 12.3519 18.5374 12.1961 18.4252 12.0807C18.3129 11.9654 18.16 11.9 18 11.9C17.84 11.9 17.6871 11.9654 17.5748 12.0807C17.4626 12.1961 17.4001 12.3519 17.4001 12.5138L17.4001 21.817L13.9262 18.2458L13.9262 18.2458C13.8138 18.1303 13.6607 18.0649 13.5006 18.0649C13.3404 18.0649 13.1873 18.1303 13.0749 18.2458C12.9626 18.3612 12.9 18.5172 12.9 18.6793C12.9 18.8414 12.9626 18.9974 13.0749 19.1128L17.5743 23.7369L18.5999 21.817ZM17.7692 23.8709C17.6961 23.8398 17.63 23.7942 17.5744 23.737L17.7692 23.8709ZM17.7692 23.8709C17.8422 23.9021 17.9207 23.9182 18 23.9182M17.7692 23.8709L18 23.9182M18 23.9182C18.0793 23.9182 18.1577 23.9021 18.2308 23.8709M18 23.9182L18.2308 23.8709M18.2308 23.8709C18.3039 23.8398 18.37 23.7942 18.4256 23.737L18.2308 23.8709Z" fill="white" stroke="white" stroke-width="0.2"/>
<rect x="0.5" y="0.5" width="34" height="34" rx="17" stroke="white" stroke-opacity="0.4"/>
</svg>
