<svg width="76" height="11" viewBox="0 0 76 11" fill="none" xmlns="http://www.w3.org/2000/svg">
<path fill-rule="evenodd" clip-rule="evenodd" d="M11.7002 5.01059L9.28574 7.01527L10.009 9.99989C10.0473 10.1559 10.0364 10.3192 9.9776 10.4694C9.91886 10.6195 9.81489 10.7499 9.67869 10.8441C9.5425 10.9384 9.38013 10.9923 9.21187 10.9992C9.04362 11.0062 8.87696 10.9657 8.73272 10.883L5.99652 9.30416L3.26621 10.883C3.12197 10.9657 2.9553 11.0062 2.78705 10.9992C2.6188 10.9923 2.45643 10.9384 2.32024 10.8441C2.18404 10.7499 2.08007 10.6195 2.02132 10.4694C1.96257 10.3192 1.95165 10.1559 1.98992 9.99989L2.71212 7.01833L0.297133 5.01059C0.169402 4.90578 0.0770388 4.76743 0.0316267 4.61288C-0.0137855 4.45834 -0.0102254 4.29448 0.0418605 4.14185C0.0939464 3.98922 0.192239 3.85462 0.324413 3.75492C0.456587 3.65522 0.616758 3.59487 0.784841 3.58144L3.96806 3.31914L5.21062 0.499541C5.27551 0.351592 5.38496 0.225215 5.52519 0.136324C5.66541 0.047432 5.83015 0 5.99866 0C6.16717 0 6.33191 0.047432 6.47214 0.136324C6.61237 0.225215 6.72181 0.351592 6.7867 0.499541L8.03301 3.31914L11.2152 3.58144C11.3832 3.59487 11.5434 3.65522 11.6756 3.75492C11.8078 3.85462 11.9061 3.98922 11.9581 4.14185C12.0102 4.29448 12.0138 4.45834 11.9684 4.61288C11.923 4.76743 11.8306 4.90578 11.7029 5.01059H11.7002ZM27.7002 5.01059L25.2857 7.01527L26.009 9.99989C26.0473 10.1559 26.0364 10.3192 25.9776 10.4694C25.9189 10.6195 25.8149 10.7499 25.6787 10.8441C25.5425 10.9384 25.3801 10.9923 25.2119 10.9992C25.0436 11.0062 24.877 10.9657 24.7327 10.883L21.9965 9.30416L19.2662 10.883C19.122 10.9657 18.9553 11.0062 18.7871 10.9992C18.6188 10.9923 18.4564 10.9384 18.3202 10.8441C18.184 10.7499 18.0801 10.6195 18.0213 10.4694C17.9626 10.3192 17.9517 10.1559 17.9899 9.99989L18.7121 7.01833L16.2971 5.01059C16.1694 4.90578 16.077 4.76743 16.0316 4.61289C15.9862 4.45834 15.9898 4.29448 16.0419 4.14185C16.0939 3.98922 16.1922 3.85462 16.3244 3.75492C16.4566 3.65523 16.6168 3.59488 16.7848 3.58144L19.9681 3.31914L21.2106 0.499541C21.2755 0.351592 21.385 0.225215 21.5252 0.136324C21.6654 0.047432 21.8302 0 21.9987 0C22.1672 0 22.3319 0.047432 22.4721 0.136324C22.6124 0.225215 22.7218 0.351592 22.7867 0.499541L24.033 3.31914L27.2152 3.58144C27.3832 3.59488 27.5434 3.65523 27.6756 3.75492C27.8078 3.85462 27.9061 3.98922 27.9581 4.14185C28.0102 4.29448 28.0138 4.45834 27.9684 4.61289C27.923 4.76743 27.8306 4.90578 27.7029 5.01059H27.7002ZM41.2857 7.01527L43.7002 5.01059H43.7029C43.8306 4.90578 43.923 4.76743 43.9684 4.61288C44.0138 4.45834 44.0102 4.29448 43.9581 4.14185C43.9061 3.98922 43.8078 3.85462 43.6756 3.75492C43.5434 3.65522 43.3832 3.59487 43.2152 3.58144L40.033 3.31914L38.7867 0.499541C38.7218 0.351592 38.6124 0.225215 38.4721 0.136324C38.3319 0.047432 38.1672 0 37.9987 0C37.8302 0 37.6654 0.047432 37.5252 0.136324C37.385 0.225215 37.2755 0.351592 37.2106 0.499541L35.9681 3.31914L32.7848 3.58144C32.6168 3.59487 32.4566 3.65522 32.3244 3.75492C32.1922 3.85462 32.0939 3.98922 32.0419 4.14185C31.9898 4.29448 31.9862 4.45834 32.0316 4.61288C32.077 4.76743 32.1694 4.90578 32.2971 5.01059L34.7121 7.01833L33.9899 9.99989C33.9516 10.1559 33.9626 10.3192 34.0213 10.4694C34.0801 10.6195 34.184 10.7499 34.3202 10.8441C34.4564 10.9384 34.6188 10.9923 34.7871 10.9992C34.9553 11.0062 35.122 10.9657 35.2662 10.883L37.9965 9.30416L40.7327 10.883C40.877 10.9657 41.0436 11.0062 41.2119 10.9992C41.3801 10.9923 41.5425 10.9384 41.6787 10.8441C41.8149 10.7499 41.9189 10.6195 41.9776 10.4694C42.0364 10.3192 42.0473 10.1559 42.009 9.99989L41.2857 7.01527ZM59.7002 5.01059L57.2857 7.01527L58.009 9.99989C58.0473 10.1559 58.0364 10.3192 57.9776 10.4694C57.9189 10.6195 57.8149 10.7499 57.6787 10.8441C57.5425 10.9384 57.3801 10.9923 57.2119 10.9992C57.0436 11.0062 56.877 10.9657 56.7327 10.883L53.9965 9.30416L51.2662 10.883C51.122 10.9657 50.9553 11.0062 50.7871 10.9992C50.6188 10.9923 50.4564 10.9384 50.3202 10.8441C50.184 10.7499 50.0801 10.6195 50.0213 10.4694C49.9626 10.3192 49.9517 10.1559 49.9899 9.99989L50.7121 7.01833L48.2971 5.01059C48.1694 4.90578 48.077 4.76743 48.0316 4.61288C47.9862 4.45834 47.9898 4.29448 48.0419 4.14185C48.0939 3.98922 48.1922 3.85462 48.3244 3.75492C48.4566 3.65522 48.6168 3.59487 48.7848 3.58144L51.9681 3.31914L53.2106 0.499541C53.2755 0.351592 53.385 0.225215 53.5252 0.136324C53.6654 0.047432 53.8302 0 53.9987 0C54.1672 0 54.3319 0.047432 54.4721 0.136324C54.6124 0.225215 54.7218 0.351592 54.7867 0.499541L56.033 3.31914L59.2152 3.58144C59.3832 3.59487 59.5434 3.65522 59.6756 3.75492C59.8078 3.85462 59.9061 3.98922 59.9581 4.14185C60.0102 4.29448 60.0138 4.45834 59.9684 4.61288C59.923 4.76743 59.8306 4.90578 59.7029 5.01059H59.7002ZM73.2857 7.01527L75.7002 5.01059H75.7029C75.8306 4.90578 75.923 4.76743 75.9684 4.61288C76.0138 4.45834 76.0102 4.29448 75.9581 4.14185C75.9061 3.98922 75.8078 3.85462 75.6756 3.75492C75.5434 3.65522 75.3832 3.59487 75.2152 3.58144L72.033 3.31914L70.7867 0.499541C70.7218 0.351592 70.6124 0.225215 70.4721 0.136324C70.3319 0.047432 70.1672 0 69.9987 0C69.8302 0 69.6654 0.047432 69.5252 0.136324C69.385 0.225215 69.2755 0.351592 69.2106 0.499541L67.9681 3.31914L64.7848 3.58144C64.6168 3.59487 64.4566 3.65522 64.3244 3.75492C64.1922 3.85462 64.0939 3.98922 64.0419 4.14185C63.9898 4.29448 63.9862 4.45834 64.0316 4.61288C64.077 4.76743 64.1694 4.90578 64.2971 5.01059L66.7121 7.01833L65.9899 9.99989C65.9517 10.1559 65.9626 10.3192 66.0213 10.4694C66.0801 10.6195 66.184 10.7499 66.3202 10.8441C66.4564 10.9384 66.6188 10.9923 66.7871 10.9992C66.9553 11.0062 67.122 10.9657 67.2662 10.883L69.9965 9.30416L72.7327 10.883C72.877 10.9657 73.0436 11.0062 73.2119 10.9992C73.3801 10.9923 73.5425 10.9384 73.6787 10.8441C73.8149 10.7499 73.9189 10.6195 73.9776 10.4694C74.0364 10.3192 74.0473 10.1559 74.009 9.99989L73.2857 7.01527Z" fill="#FBB453"/>
</svg>
