<svg width="17" height="13" viewBox="0 0 17 13" fill="none" xmlns="http://www.w3.org/2000/svg">
<path d="M5.52622 13C11.5639 13 14.8667 7.99727 14.8667 3.6665C14.8667 3.5265 14.8667 3.38451 14.8607 3.24452C15.5037 2.77903 16.0587 2.20273 16.4996 1.54261C15.899 1.80745 15.2625 1.98199 14.6107 2.06058C15.2972 1.65024 15.8114 1.00461 16.0577 0.24368C15.4127 0.625784 14.7067 0.894019 13.9708 1.03664C13.476 0.50969 12.8212 0.160602 12.108 0.0434483C11.3947 -0.0737057 10.6627 0.0476121 10.0253 0.38861C9.38797 0.729607 8.88085 1.27125 8.58251 1.92965C8.28417 2.58805 8.21125 3.32645 8.37507 4.03048C7.06988 3.96503 5.79302 3.62597 4.62731 3.03527C3.4616 2.44458 2.43307 1.61545 1.60843 0.601661C1.18979 1.32471 1.06203 2.17998 1.25109 2.9938C1.44016 3.80762 1.93187 4.51898 2.62637 4.98343C2.10594 4.96575 1.59695 4.826 1.14045 4.57545V4.62045C1.14135 5.37789 1.40375 6.11179 1.88329 6.6981C2.36283 7.2844 3.0301 7.68716 3.77231 7.83828C3.49059 7.91589 3.19957 7.95458 2.90736 7.95327C2.70135 7.95389 2.49576 7.93481 2.29339 7.89627C2.50317 8.54829 2.91163 9.11837 3.46158 9.52666C4.01152 9.93495 4.6754 10.161 5.36023 10.1732C4.19685 11.0869 2.75977 11.5825 1.28045 11.5801C1.01978 11.5812 0.759298 11.5661 0.500488 11.5351C2.00192 12.4923 3.74561 13.0005 5.52622 13Z" fill="white"/>
</svg>
