<svg width="14" height="13" viewBox="0 0 14 13" fill="none" xmlns="http://www.w3.org/2000/svg">
<path d="M6.99952 0C10.5895 0 13.4995 2.91005 13.4995 6.5C13.4995 10.0899 10.5895 13 6.99952 13C5.85082 13.0018 4.72234 12.6979 3.73002 12.1192L0.502121 13L1.38092 9.77079C0.801831 8.77816 0.497602 7.64919 0.499521 6.5C0.499521 2.91005 3.40957 0 6.99952 0ZM4.78432 3.445L4.65432 3.4502C4.57016 3.45532 4.4879 3.47743 4.41252 3.5152C4.34201 3.55513 4.27764 3.60504 4.22142 3.6634C4.14342 3.73685 4.09922 3.80055 4.05177 3.8623C3.81135 4.17488 3.6819 4.55865 3.68387 4.953C3.68517 5.2715 3.76837 5.58155 3.89837 5.87145C4.16422 6.45775 4.60167 7.07849 5.17887 7.65374C5.31797 7.79219 5.45447 7.93129 5.60137 8.06064C6.31857 8.6921 7.17323 9.14747 8.09737 9.39054L8.46657 9.44709C8.58682 9.45359 8.70707 9.44449 8.82797 9.43864C9.01727 9.42887 9.20211 9.37761 9.36941 9.28849C9.45454 9.24465 9.53761 9.19693 9.61837 9.14549C9.61837 9.14549 9.64631 9.12729 9.69961 9.08699C9.78736 9.02199 9.84131 8.97584 9.91411 8.89979C9.96806 8.84389 10.0149 8.77824 10.0506 8.70349C10.1013 8.59754 10.152 8.39539 10.1728 8.22704C10.1884 8.09834 10.1839 8.02814 10.1819 7.98459C10.1793 7.91504 10.1215 7.84289 10.0584 7.81234L9.68011 7.6427C9.68011 7.6427 9.11461 7.39635 8.76881 7.23905C8.73263 7.22325 8.69386 7.21421 8.65442 7.21239C8.60994 7.20783 8.56501 7.21283 8.52263 7.22707C8.48025 7.24131 8.44141 7.26445 8.40872 7.29494C8.40547 7.29364 8.36192 7.3307 7.89197 7.90009C7.86499 7.93634 7.82784 7.96373 7.78524 7.97878C7.74264 7.99383 7.69652 7.99585 7.65277 7.98459C7.61042 7.97324 7.56894 7.9589 7.52862 7.94169C7.44802 7.90789 7.42007 7.89489 7.36482 7.87149C6.99176 7.7087 6.64636 7.48874 6.34107 7.21955C6.25917 7.14805 6.18312 7.07004 6.10512 6.99465C5.8494 6.74975 5.62654 6.4727 5.44212 6.17045L5.40377 6.1087C5.37622 6.0672 5.35395 6.02244 5.33747 5.97545C5.31277 5.8799 5.37712 5.8032 5.37712 5.8032C5.37712 5.8032 5.53507 5.6303 5.60852 5.5367C5.68002 5.4457 5.74047 5.3573 5.77947 5.29425C5.85617 5.17075 5.88022 5.044 5.83992 4.94585C5.65792 4.50125 5.46942 4.0586 5.27572 3.6192C5.23737 3.5321 5.12362 3.4697 5.02027 3.45735C4.98517 3.45345 4.95007 3.44955 4.91497 3.44695C4.82768 3.44261 4.74021 3.44348 4.65302 3.44955L4.78367 3.44435L4.78432 3.445Z" fill="white"/>
</svg>
