<svg width="14" height="13" viewBox="0 0 14 13" fill="none" xmlns="http://www.w3.org/2000/svg">
<path d="M0.499512 0.931125C0.499512 0.416813 0.926887 0 1.4542 0H12.5448C13.0721 0 13.4995 0.416813 13.4995 0.931125V12.0689C13.4995 12.5832 13.0721 13 12.5448 13H1.4542C0.926887 13 0.499512 12.5832 0.499512 12.0689V0.931125ZM4.5157 10.8826V5.01231H2.56489V10.8826H4.5157ZM3.5407 4.21038C4.22076 4.21038 4.64407 3.76025 4.64407 3.19638C4.63189 2.62031 4.22157 2.18238 3.5537 2.18238C2.88582 2.18238 2.44951 2.62113 2.44951 3.19638C2.44951 3.76025 2.87282 4.21038 3.5277 4.21038H3.5407ZM7.52845 10.8826V7.60419C7.52845 7.42869 7.54145 7.25319 7.59345 7.12806C7.73401 6.77787 8.05495 6.41469 8.59445 6.41469C9.30051 6.41469 9.58245 6.95256 9.58245 7.74231V10.8826H11.5333V7.51562C11.5333 5.71187 10.5713 4.87338 9.28751 4.87338C8.25239 4.87338 7.78845 5.44212 7.52845 5.84269V5.863H7.51545C7.51976 5.85622 7.5241 5.84945 7.52845 5.84269V5.01231H5.57845C5.60282 5.56319 5.57845 10.8826 5.57845 10.8826H7.52845Z" fill="white"/>
</svg>
